# MagicaVoxel @ Ephtracy

# group
o 

# material
mtllib cube_04.mtl
usemtl palette

# normals
vn -1 0 0
vn 1 0 0
vn 0 0 1
vn 0 0 -1
vn 0 -1 0
vn 0 1 0

# texcoords
vt 0.400391 0.5
vt 0.591797 0.5
vt 0.990234 0.5

# verts
v 0 2 0
v 0 2 -4.1
v 0 2.2 -0.2
v 0 2.2 -3.9
v 0 5.9 -0.2
v 0 5.9 -3.9
v 0 6.1 0
v 0 6.1 -4.1
v 4.1 2 0
v 4.1 2 -4.1
v 4.1 2.2 -0.2
v 4.1 2.2 -3.9
v 4.1 5.9 -0.2
v 4.1 5.9 -3.9
v 4.1 6.1 0
v 4.1 6.1 -4.1
v 0 2 0
v 0 6.1 0
v 0.2 2.2 0
v 0.2 5.9 0
v 0.4 5.1 0
v 0.4 5.3 0
v 0.6 5.1 0
v 0.6 5.3 0
v 0.6 5.5 0
v 0.8 5.3 0
v 0.8 5.5 0
v 0.8 5.7 0
v 1 5.5 0
v 1 5.7 0
v 3.3 2.4 0
v 3.3 2.6 0
v 3.5 2.4 0
v 3.5 2.6 0
v 3.5 2.8 0
v 3.7 2.6 0
v 3.7 2.8 0
v 3.9 2.2 0
v 3.9 5.9 0
v 4.1 2 0
v 4.1 6.1 0
v 0 2 -4.1
v 0 6.1 -4.1
v 0.2 2.2 -4.1
v 0.2 5.9 -4.1
v 3.9 2.2 -4.1
v 3.9 5.9 -4.1
v 4.1 2 -4.1
v 4.1 6.1 -4.1
v 0 2 0
v 4.1 2 0
v 0.2 2 -0.2
v 3.9 2 -0.2
v 0.2 2 -3.9
v 3.9 2 -3.9
v 0 2 -4.1
v 4.1 2 -4.1
v 0 6.1 0
v 4.1 6.1 0
v 0.2 6.1 -0.2
v 3.9 6.1 -0.2
v 3.3 6.1 -0.4
v 3.5 6.1 -0.4
v 3.3 6.1 -0.6
v 3.5 6.1 -0.6
v 3.7 6.1 -0.6
v 3.5 6.1 -0.8
v 3.7 6.1 -0.8
v 0.4 6.1 -3.1
v 0.6 6.1 -3.1
v 0.4 6.1 -3.3
v 0.6 6.1 -3.3
v 0.8 6.1 -3.3
v 0.6 6.1 -3.5
v 0.8 6.1 -3.5
v 1 6.1 -3.5
v 0.8 6.1 -3.7
v 1 6.1 -3.7
v 0.2 6.1 -3.9
v 3.9 6.1 -3.9
v 0 6.1 -4.1
v 4.1 6.1 -4.1

# faces
f 3/2/1 2/2/1 1/2/1
f 4/2/1 2/2/1 3/2/1
f 5/2/1 3/2/1 1/2/1
f 5/3/1 4/3/1 3/3/1
f 6/2/1 2/2/1 4/2/1
f 6/3/1 4/3/1 5/3/1
f 7/2/1 5/2/1 1/2/1
f 7/2/1 6/2/1 5/2/1
f 8/2/1 2/2/1 6/2/1
f 8/2/1 6/2/1 7/2/1
f 9/2/2 10/2/2 11/2/2
f 11/2/2 10/2/2 12/2/2
f 9/2/2 11/2/2 13/2/2
f 11/3/2 12/3/2 13/3/2
f 12/2/2 10/2/2 14/2/2
f 13/3/2 12/3/2 14/3/2
f 9/2/2 13/2/2 15/2/2
f 13/2/2 14/2/2 15/2/2
f 14/2/2 10/2/2 16/2/2
f 15/2/2 14/2/2 16/2/2
f 19/2/3 18/2/3 17/2/3
f 20/2/3 18/2/3 19/2/3
f 21/3/3 20/3/3 19/3/3
f 22/3/3 20/3/3 21/3/3
f 23/3/3 21/3/3 19/3/3
f 23/2/3 22/2/3 21/2/3
f 24/3/3 20/3/3 22/3/3
f 24/2/3 22/2/3 23/2/3
f 25/3/3 20/3/3 24/3/3
f 26/3/3 24/3/3 23/3/3
f 26/2/3 25/2/3 24/2/3
f 27/3/3 20/3/3 25/3/3
f 27/2/3 25/2/3 26/2/3
f 28/3/3 20/3/3 27/3/3
f 29/3/3 27/3/3 26/3/3
f 29/2/3 28/2/3 27/2/3
f 30/3/3 20/3/3 28/3/3
f 30/2/3 28/2/3 29/2/3
f 31/3/3 23/3/3 19/3/3
f 31/3/3 26/3/3 23/3/3
f 31/3/3 30/3/3 29/3/3
f 31/3/3 29/3/3 26/3/3
f 32/3/3 30/3/3 31/3/3
f 33/3/3 31/3/3 19/3/3
f 33/2/3 32/2/3 31/2/3
f 34/3/3 30/3/3 32/3/3
f 34/2/3 32/2/3 33/2/3
f 35/3/3 30/3/3 34/3/3
f 36/3/3 34/3/3 33/3/3
f 36/2/3 35/2/3 34/2/3
f 37/3/3 30/3/3 35/3/3
f 37/2/3 35/2/3 36/2/3
f 38/2/3 19/2/3 17/2/3
f 38/3/3 33/3/3 19/3/3
f 38/3/3 37/3/3 36/3/3
f 38/3/3 36/3/3 33/3/3
f 39/3/3 30/3/3 37/3/3
f 39/3/3 37/3/3 38/3/3
f 39/2/3 18/2/3 20/2/3
f 39/3/3 20/3/3 30/3/3
f 40/2/3 38/2/3 17/2/3
f 40/2/3 39/2/3 38/2/3
f 41/2/3 18/2/3 39/2/3
f 41/2/3 39/2/3 40/2/3
f 42/2/4 43/2/4 44/2/4
f 44/2/4 43/2/4 45/2/4
f 42/2/4 44/2/4 46/2/4
f 44/3/4 45/3/4 46/3/4
f 45/2/4 43/2/4 47/2/4
f 46/3/4 45/3/4 47/3/4
f 42/2/4 46/2/4 48/2/4
f 46/2/4 47/2/4 48/2/4
f 47/2/4 43/2/4 49/2/4
f 48/2/4 47/2/4 49/2/4
f 52/2/5 51/2/5 50/2/5
f 53/2/5 51/2/5 52/2/5
f 54/2/5 52/2/5 50/2/5
f 54/3/5 53/3/5 52/3/5
f 55/2/5 51/2/5 53/2/5
f 55/3/5 53/3/5 54/3/5
f 56/2/5 54/2/5 50/2/5
f 56/2/5 55/2/5 54/2/5
f 57/2/5 51/2/5 55/2/5
f 57/2/5 55/2/5 56/2/5
f 58/2/6 59/2/6 60/2/6
f 60/2/6 59/2/6 61/2/6
f 60/3/6 61/3/6 62/3/6
f 62/3/6 61/3/6 63/3/6
f 60/3/6 62/3/6 64/3/6
f 62/2/6 63/2/6 64/2/6
f 63/3/6 61/3/6 65/3/6
f 64/2/6 63/2/6 65/2/6
f 65/3/6 61/3/6 66/3/6
f 64/3/6 65/3/6 67/3/6
f 65/2/6 66/2/6 67/2/6
f 66/3/6 61/3/6 68/3/6
f 67/2/6 66/2/6 68/2/6
f 60/3/6 64/3/6 69/3/6
f 64/3/6 67/3/6 69/3/6
f 67/3/6 68/3/6 69/3/6
f 69/3/6 68/3/6 70/3/6
f 60/3/6 69/3/6 71/3/6
f 69/2/6 70/2/6 71/2/6
f 70/3/6 68/3/6 72/3/6
f 71/2/6 70/2/6 72/2/6
f 72/3/6 68/3/6 73/3/6
f 71/3/6 72/3/6 74/3/6
f 72/2/6 73/2/6 74/2/6
f 73/3/6 68/3/6 75/3/6
f 74/2/6 73/2/6 75/2/6
f 75/3/6 68/3/6 76/3/6
f 74/3/6 75/3/6 77/3/6
f 75/2/6 76/2/6 77/2/6
f 76/3/6 68/3/6 78/3/6
f 77/2/6 76/2/6 78/2/6
f 58/2/6 60/2/6 79/2/6
f 60/3/6 71/3/6 79/3/6
f 77/3/6 78/3/6 79/3/6
f 74/3/6 77/3/6 79/3/6
f 71/3/6 74/3/6 79/3/6
f 78/3/6 68/3/6 80/3/6
f 79/3/6 78/3/6 80/3/6
f 61/2/6 59/2/6 80/2/6
f 68/3/6 61/3/6 80/3/6
f 58/2/6 79/2/6 81/2/6
f 79/2/6 80/2/6 81/2/6
f 80/2/6 59/2/6 82/2/6
f 81/2/6 80/2/6 82/2/6
