# MagicaVoxel @ Ephtracy

# group
o 

# material
mtllib cube_02.mtl
usemtl palette

# normals
vn -1 0 0
vn 1 0 0
vn 0 0 1
vn 0 0 -1
vn 0 -1 0
vn 0 1 0

# texcoords
vt 0.400391 0.5
vt 0.990234 0.5

# verts
v 0 2 0
v 0 2 -4.1
v 0 2.2 -0.2
v 0 2.2 -3.9
v 0 5.9 -0.2
v 0 5.9 -3.9
v 0 6.1 0
v 0 6.1 -4.1
v 4.1 2 0
v 4.1 2 -4.1
v 4.1 2.2 -0.2
v 4.1 2.2 -3.9
v 4.1 5.9 -0.2
v 4.1 5.9 -3.9
v 4.1 6.1 0
v 4.1 6.1 -4.1
v 0 2 0
v 0 6.1 0
v 0.2 2.2 0
v 0.2 5.5 0
v 0.4 5.3 0
v 0.4 5.5 0
v 0.6 5.1 0
v 0.6 5.3 0
v 0.6 5.7 0
v 0.6 5.9 0
v 0.8 4.9 0
v 0.8 5.1 0
v 0.8 5.5 0
v 0.8 5.7 0
v 1 4.7 0
v 1 4.9 0
v 1 5.3 0
v 1 5.5 0
v 1.2 4.5 0
v 1.2 4.7 0
v 1.2 5.1 0
v 1.2 5.3 0
v 1.4 4.3 0
v 1.4 4.5 0
v 1.4 4.9 0
v 1.4 5.1 0
v 1.6 4.1 0
v 1.6 4.3 0
v 1.6 4.7 0
v 1.6 4.9 0
v 1.8 3.9 0
v 1.8 4.1 0
v 1.8 4.5 0
v 1.8 4.7 0
v 2 3.7 0
v 2 3.9 0
v 2 4.3 0
v 2 4.5 0
v 2.2 3.5 0
v 2.2 3.7 0
v 2.2 4.1 0
v 2.2 4.3 0
v 2.4 3.3 0
v 2.4 3.5 0
v 2.4 3.9 0
v 2.4 4.1 0
v 2.6 3.1 0
v 2.6 3.3 0
v 2.6 3.7 0
v 2.6 3.9 0
v 2.8 2.9 0
v 2.8 3.1 0
v 2.8 3.5 0
v 2.8 3.7 0
v 3 2.7 0
v 3 2.9 0
v 3 3.3 0
v 3 3.5 0
v 3.2 2.5 0
v 3.2 2.7 0
v 3.2 3.1 0
v 3.2 3.3 0
v 3.4 2.3 0
v 3.4 2.5 0
v 3.4 2.9 0
v 3.4 3.1 0
v 3.6 2.2 0
v 3.6 2.3 0
v 3.6 2.7 0
v 3.6 2.9 0
v 3.8 2.5 0
v 3.8 2.7 0
v 3.9 2.5 0
v 3.9 5.9 0
v 4.1 2 0
v 4.1 6.1 0
v 0 2 -4.1
v 0 6.1 -4.1
v 0.2 2.2 -4.1
v 0.2 5.9 -4.1
v 3.9 2.2 -4.1
v 3.9 5.9 -4.1
v 4.1 2 -4.1
v 4.1 6.1 -4.1
v 0 2 0
v 4.1 2 0
v 0.1 2 -0.1
v 4 2 -0.1
v 0.1 2 -4
v 4 2 -4
v 0 2 -4.1
v 4.1 2 -4.1
v 0 6.1 0
v 4.1 6.1 0
v 0.2 6.1 -0.2
v 3.9 6.1 -0.2
v 0.2 6.1 -3.9
v 3.9 6.1 -3.9
v 0 6.1 -4.1
v 4.1 6.1 -4.1

# faces
f 3/1/1 2/1/1 1/1/1
f 4/1/1 2/1/1 3/1/1
f 5/1/1 3/1/1 1/1/1
f 5/2/1 4/2/1 3/2/1
f 6/1/1 2/1/1 4/1/1
f 6/2/1 4/2/1 5/2/1
f 7/1/1 5/1/1 1/1/1
f 7/1/1 6/1/1 5/1/1
f 8/1/1 2/1/1 6/1/1
f 8/1/1 6/1/1 7/1/1
f 9/1/2 10/1/2 11/1/2
f 11/1/2 10/1/2 12/1/2
f 9/1/2 11/1/2 13/1/2
f 11/2/2 12/2/2 13/2/2
f 12/1/2 10/1/2 14/1/2
f 13/2/2 12/2/2 14/2/2
f 9/1/2 13/1/2 15/1/2
f 13/1/2 14/1/2 15/1/2
f 14/1/2 10/1/2 16/1/2
f 15/1/2 14/1/2 16/1/2
f 19/1/3 18/1/3 17/1/3
f 20/1/3 18/1/3 19/1/3
f 21/2/3 20/2/3 19/2/3
f 22/1/3 18/1/3 20/1/3
f 22/2/3 20/2/3 21/2/3
f 23/2/3 21/2/3 19/2/3
f 24/1/3 22/1/3 21/1/3
f 24/2/3 21/2/3 23/2/3
f 25/1/3 18/1/3 22/1/3
f 25/1/3 22/1/3 24/1/3
f 26/1/3 18/1/3 25/1/3
f 27/2/3 23/2/3 19/2/3
f 28/1/3 24/1/3 23/1/3
f 28/2/3 23/2/3 27/2/3
f 28/1/3 25/1/3 24/1/3
f 29/1/3 25/1/3 28/1/3
f 30/2/3 26/2/3 25/2/3
f 30/1/3 25/1/3 29/1/3
f 31/2/3 27/2/3 19/2/3
f 32/1/3 29/1/3 28/1/3
f 32/2/3 27/2/3 31/2/3
f 32/1/3 28/1/3 27/1/3
f 33/1/3 29/1/3 32/1/3
f 34/2/3 30/2/3 29/2/3
f 34/1/3 29/1/3 33/1/3
f 35/2/3 31/2/3 19/2/3
f 36/1/3 33/1/3 32/1/3
f 36/2/3 31/2/3 35/2/3
f 36/1/3 32/1/3 31/1/3
f 37/1/3 33/1/3 36/1/3
f 38/2/3 34/2/3 33/2/3
f 38/1/3 33/1/3 37/1/3
f 39/2/3 35/2/3 19/2/3
f 40/1/3 37/1/3 36/1/3
f 40/2/3 35/2/3 39/2/3
f 40/1/3 36/1/3 35/1/3
f 41/1/3 37/1/3 40/1/3
f 42/2/3 38/2/3 37/2/3
f 42/1/3 37/1/3 41/1/3
f 43/2/3 39/2/3 19/2/3
f 44/1/3 41/1/3 40/1/3
f 44/2/3 39/2/3 43/2/3
f 44/1/3 40/1/3 39/1/3
f 45/1/3 41/1/3 44/1/3
f 46/2/3 42/2/3 41/2/3
f 46/1/3 41/1/3 45/1/3
f 47/2/3 43/2/3 19/2/3
f 48/1/3 45/1/3 44/1/3
f 48/2/3 43/2/3 47/2/3
f 48/1/3 44/1/3 43/1/3
f 49/1/3 45/1/3 48/1/3
f 50/2/3 46/2/3 45/2/3
f 50/1/3 45/1/3 49/1/3
f 51/2/3 47/2/3 19/2/3
f 52/1/3 49/1/3 48/1/3
f 52/2/3 47/2/3 51/2/3
f 52/1/3 48/1/3 47/1/3
f 53/1/3 49/1/3 52/1/3
f 54/2/3 50/2/3 49/2/3
f 54/1/3 49/1/3 53/1/3
f 55/2/3 51/2/3 19/2/3
f 56/1/3 53/1/3 52/1/3
f 56/2/3 51/2/3 55/2/3
f 56/1/3 52/1/3 51/1/3
f 57/1/3 53/1/3 56/1/3
f 58/2/3 54/2/3 53/2/3
f 58/1/3 53/1/3 57/1/3
f 59/2/3 55/2/3 19/2/3
f 60/1/3 57/1/3 56/1/3
f 60/2/3 55/2/3 59/2/3
f 60/1/3 56/1/3 55/1/3
f 61/1/3 57/1/3 60/1/3
f 62/2/3 58/2/3 57/2/3
f 62/1/3 57/1/3 61/1/3
f 63/2/3 59/2/3 19/2/3
f 64/1/3 61/1/3 60/1/3
f 64/2/3 59/2/3 63/2/3
f 64/1/3 60/1/3 59/1/3
f 65/1/3 61/1/3 64/1/3
f 66/2/3 62/2/3 61/2/3
f 66/1/3 61/1/3 65/1/3
f 67/2/3 63/2/3 19/2/3
f 68/1/3 65/1/3 64/1/3
f 68/2/3 63/2/3 67/2/3
f 68/1/3 64/1/3 63/1/3
f 69/1/3 65/1/3 68/1/3
f 70/2/3 66/2/3 65/2/3
f 70/1/3 65/1/3 69/1/3
f 71/2/3 67/2/3 19/2/3
f 72/1/3 69/1/3 68/1/3
f 72/2/3 67/2/3 71/2/3
f 72/1/3 68/1/3 67/1/3
f 73/1/3 69/1/3 72/1/3
f 74/2/3 70/2/3 69/2/3
f 74/1/3 69/1/3 73/1/3
f 75/2/3 71/2/3 19/2/3
f 76/1/3 73/1/3 72/1/3
f 76/2/3 71/2/3 75/2/3
f 76/1/3 72/1/3 71/1/3
f 77/1/3 73/1/3 76/1/3
f 78/2/3 74/2/3 73/2/3
f 78/1/3 73/1/3 77/1/3
f 79/2/3 75/2/3 19/2/3
f 80/1/3 77/1/3 76/1/3
f 80/2/3 75/2/3 79/2/3
f 80/1/3 76/1/3 75/1/3
f 81/1/3 77/1/3 80/1/3
f 82/2/3 78/2/3 77/2/3
f 82/1/3 77/1/3 81/1/3
f 83/1/3 19/1/3 17/1/3
f 83/2/3 79/2/3 19/2/3
f 84/1/3 81/1/3 80/1/3
f 84/2/3 79/2/3 83/2/3
f 84/1/3 80/1/3 79/1/3
f 85/1/3 81/1/3 84/1/3
f 86/2/3 82/2/3 81/2/3
f 86/1/3 81/1/3 85/1/3
f 87/1/3 85/1/3 84/1/3
f 87/1/3 84/1/3 83/1/3
f 88/2/3 86/2/3 85/2/3
f 88/1/3 85/1/3 87/1/3
f 89/1/3 87/1/3 83/1/3
f 89/2/3 88/2/3 87/2/3
f 90/2/3 78/2/3 82/2/3
f 90/2/3 88/2/3 89/2/3
f 90/2/3 26/2/3 30/2/3
f 90/2/3 86/2/3 88/2/3
f 90/1/3 18/1/3 26/1/3
f 90/2/3 82/2/3 86/2/3
f 90/2/3 74/2/3 78/2/3
f 90/2/3 70/2/3 74/2/3
f 90/2/3 66/2/3 70/2/3
f 90/2/3 62/2/3 66/2/3
f 90/2/3 58/2/3 62/2/3
f 90/2/3 54/2/3 58/2/3
f 90/2/3 50/2/3 54/2/3
f 90/2/3 46/2/3 50/2/3
f 90/2/3 42/2/3 46/2/3
f 90/2/3 38/2/3 42/2/3
f 90/2/3 34/2/3 38/2/3
f 90/2/3 30/2/3 34/2/3
f 91/1/3 89/1/3 83/1/3
f 91/1/3 83/1/3 17/1/3
f 91/1/3 90/1/3 89/1/3
f 92/1/3 18/1/3 90/1/3
f 92/1/3 90/1/3 91/1/3
f 93/1/4 94/1/4 95/1/4
f 95/1/4 94/1/4 96/1/4
f 93/1/4 95/1/4 97/1/4
f 95/2/4 96/2/4 97/2/4
f 96/1/4 94/1/4 98/1/4
f 97/2/4 96/2/4 98/2/4
f 93/1/4 97/1/4 99/1/4
f 97/1/4 98/1/4 99/1/4
f 98/1/4 94/1/4 100/1/4
f 99/1/4 98/1/4 100/1/4
f 103/1/5 102/1/5 101/1/5
f 104/1/5 102/1/5 103/1/5
f 105/1/5 103/1/5 101/1/5
f 105/2/5 104/2/5 103/2/5
f 106/1/5 102/1/5 104/1/5
f 106/2/5 104/2/5 105/2/5
f 107/1/5 105/1/5 101/1/5
f 107/1/5 106/1/5 105/1/5
f 108/1/5 102/1/5 106/1/5
f 108/1/5 106/1/5 107/1/5
f 109/1/6 110/1/6 111/1/6
f 111/1/6 110/1/6 112/1/6
f 109/1/6 111/1/6 113/1/6
f 111/2/6 112/2/6 113/2/6
f 112/1/6 110/1/6 114/1/6
f 113/2/6 112/2/6 114/2/6
f 109/1/6 113/1/6 115/1/6
f 113/1/6 114/1/6 115/1/6
f 114/1/6 110/1/6 116/1/6
f 115/1/6 114/1/6 116/1/6
