# MagicaVoxel @ Ephtracy

# group
# o FIB

# material
mtllib FIB.mtl
usemtl palette

# normals
vn -1 0 0
vn 1 0 0
vn 0 -1 0
vn 0 1 0
vn 0 0 -1
vn 0 0 1

# texcoords
vt 0.306641 0.5
vt 0.337891 0.5
vt 0.423828 0.5
vt 0.849609 0.5
vt 0.970703 0.5

# verts
v -6.3 0 -0.8
v -6.3 4.2 -0.8
v -6.3 0 -0.1
v -6.3 4.2 -0.1
v -6.3 0 0
v -6.3 4.2 0
v -1.5 0 -0.8
v -1.5 4.2 -0.8
v -1.5 0 -0.1
v -1.5 4.2 -0.1
v -1.5 0 0
v -1.5 4.2 0
v 1.3 0 -0.8
v 1.3 4.2 -0.8
v 1.3 0 -0.1
v 1.3 4.2 -0.1
v 1.3 0 0
v 1.3 4.2 0
v 4.2 0.8 -0.8
v 4.2 1.8 -0.8
v 4.2 2.5 -0.8
v 4.2 3.5 -0.8
v 4.2 0.8 -0.1
v 4.2 1.8 -0.1
v 4.2 2.5 -0.1
v 4.2 3.5 -0.1
v 4.2 0.8 0
v 4.2 1.8 0
v 4.2 2.5 0
v 4.2 3.5 0
v -4.4 0 -0.8
v -4.4 1.8 -0.8
v -4.4 2.5 -0.8
v -4.4 3.5 -0.8
v -4.4 0 -0.1
v -4.4 1.8 -0.1
v -4.4 2.5 -0.1
v -4.4 3.5 -0.1
v -4.4 0 0
v -4.4 1.8 0
v -4.4 2.5 0
v -4.4 3.5 0
v -2.5 1.8 -0.8
v -2.5 2.5 -0.8
v -2.5 3.5 -0.8
v -2.5 4.2 -0.8
v -2.5 1.8 -0.1
v -2.5 2.5 -0.1
v -2.5 3.5 -0.1
v -2.5 4.2 -0.1
v -2.5 1.8 0
v -2.5 2.5 0
v -2.5 3.5 0
v -2.5 4.2 0
v 0.4 0 -0.8
v 0.4 4.2 -0.8
v 0.4 0 -0.1
v 0.4 4.2 -0.1
v 0.4 0 0
v 0.4 4.2 0
v 3.3 0.8 -0.8
v 3.3 1.8 -0.8
v 3.3 2.5 -0.8
v 3.3 3.5 -0.8
v 3.3 0.8 -0.1
v 3.3 1.8 -0.1
v 3.3 2.5 -0.1
v 3.3 3.5 -0.1
v 3.3 0.8 0
v 3.3 1.8 0
v 3.3 2.5 0
v 3.3 3.5 0
v 5.5 0 -0.8
v 5.5 0.2 -0.8
v 5.5 2.1 -0.8
v 5.5 2.3 -0.8
v 5.5 0 -0.1
v 5.5 0.2 -0.1
v 5.5 2.1 -0.1
v 5.5 2.3 -0.1
v 5.5 0 0
v 5.5 0.2 0
v 5.7 2 -0.8
v 5.7 2.1 -0.8
v 5.7 4 -0.8
v 5.7 4.2 -0.8
v 5.7 2 -0.1
v 5.7 2.1 -0.1
v 5.7 2.3 -0.1
v 5.7 4 -0.1
v 5.7 4.2 -0.1
v 5.7 2 0
v 5.7 2.1 0
v 5.7 2.3 0
v 5.7 4 0
v 5.7 4.2 0
v 5.9 0.2 -0.8
v 5.9 0.4 -0.8
v 5.9 1.8 -0.8
v 5.9 2 -0.8
v 5.9 2.3 -0.8
v 5.9 2.5 -0.8
v 5.9 3.9 -0.8
v 5.9 4 -0.8
v 5.9 0.2 -0.1
v 5.9 0.4 -0.1
v 5.9 1.8 -0.1
v 5.9 2 -0.1
v 5.9 2.3 -0.1
v 5.9 2.5 -0.1
v 5.9 3.9 -0.1
v 5.9 4 -0.1
v 5.9 0.2 0
v 5.9 0.4 0
v 5.9 1.8 0
v 5.9 2 0
v 5.9 2.3 0
v 5.9 2.5 0
v 5.9 3.9 0
v 5.9 4 0
v 6.1 0.4 -0.8
v 6.1 0.6 -0.8
v 6.1 1.6 -0.8
v 6.1 1.8 -0.8
v 6.1 2.5 -0.8
v 6.1 2.7 -0.8
v 6.1 3.7 -0.8
v 6.1 3.9 -0.8
v 6.1 0.4 -0.1
v 6.1 0.6 -0.1
v 6.1 1.6 -0.1
v 6.1 1.8 -0.1
v 6.1 2.5 -0.1
v 6.1 2.7 -0.1
v 6.1 3.7 -0.1
v 6.1 3.9 -0.1
v 6.1 0.4 0
v 6.1 0.6 0
v 6.1 1.6 0
v 6.1 1.8 0
v 6.1 2.5 0
v 6.1 2.7 0
v 6.1 3.7 0
v 6.1 3.9 0
v 6.3 0.6 -0.8
v 6.3 1.6 -0.8
v 6.3 2.7 -0.8
v 6.3 3.7 -0.8
v 6.3 0.6 -0.1
v 6.3 1.6 -0.1
v 6.3 2.7 -0.1
v 6.3 3.7 -0.1
v 6.3 0.6 0
v 6.3 1.6 0
v 6.3 2.7 0
v 6.3 3.7 0
v -6.3 0 -0.8
v -6.3 0 -0.1
v -6.3 0 0
v -4.4 0 -0.8
v -4.4 0 -0.1
v -4.4 0 0
v -1.5 0 -0.8
v -1.5 0 -0.1
v -1.5 0 0
v 0.4 0 -0.8
v 0.4 0 -0.1
v 0.4 0 0
v 1.3 0 -0.8
v 1.3 0 -0.1
v 1.3 0 0
v 5.5 0 -0.8
v 5.5 0 -0.1
v 5.5 0 0
v 5.5 0.2 -0.8
v 5.5 0.2 -0.1
v 5.5 0.2 0
v 5.9 0.2 -0.8
v 5.9 0.2 -0.1
v 5.9 0.2 0
v 5.9 0.4 -0.8
v 5.9 0.4 -0.1
v 5.9 0.4 0
v 6.1 0.4 -0.8
v 6.1 0.4 -0.1
v 6.1 0.4 0
v 6.1 0.6 -0.8
v 6.1 0.6 -0.1
v 6.1 0.6 0
v 6.3 0.6 -0.8
v 6.3 0.6 -0.1
v 6.3 0.6 0
v -4.4 1.8 -0.8
v -4.4 1.8 -0.1
v -4.4 1.8 0
v -2.5 1.8 -0.8
v -2.5 1.8 -0.1
v -2.5 1.8 0
v 3.3 1.8 -0.8
v 3.3 1.8 -0.1
v 3.3 1.8 0
v 4.2 1.8 -0.8
v 4.2 1.8 -0.1
v 4.2 1.8 0
v 5.5 2.3 -0.8
v 5.5 2.3 -0.1
v 5.7 2.3 -0.1
v 5.7 2.3 0
v 5.9 2.3 -0.8
v 5.9 2.3 -0.1
v 5.9 2.3 0
v 5.9 2.5 -0.8
v 5.9 2.5 -0.1
v 5.9 2.5 0
v 6.1 2.5 -0.8
v 6.1 2.5 -0.1
v 6.1 2.5 0
v 6.1 2.7 -0.8
v 6.1 2.7 -0.1
v 6.1 2.7 0
v 6.3 2.7 -0.8
v 6.3 2.7 -0.1
v 6.3 2.7 0
v -4.4 3.5 -0.8
v -4.4 3.5 -0.1
v -4.4 3.5 0
v -2.5 3.5 -0.8
v -2.5 3.5 -0.1
v -2.5 3.5 0
v 3.3 3.5 -0.8
v 3.3 3.5 -0.1
v 3.3 3.5 0
v 4.2 3.5 -0.8
v 4.2 3.5 -0.1
v 4.2 3.5 0
v 3.3 0.8 -0.8
v 3.3 0.8 -0.1
v 3.3 0.8 0
v 4.2 0.8 -0.8
v 4.2 0.8 -0.1
v 4.2 0.8 0
v 6.1 1.6 -0.8
v 6.1 1.6 -0.1
v 6.1 1.6 0
v 6.3 1.6 -0.8
v 6.3 1.6 -0.1
v 6.3 1.6 0
v 5.9 1.8 -0.8
v 5.9 1.8 -0.1
v 5.9 1.8 0
v 6.1 1.8 -0.8
v 6.1 1.8 -0.1
v 6.1 1.8 0
v 5.7 2 -0.8
v 5.7 2 -0.1
v 5.7 2 0
v 5.9 2 -0.8
v 5.9 2 -0.1
v 5.9 2 0
v 5.5 2.1 -0.8
v 5.5 2.1 -0.1
v 5.7 2.1 -0.8
v 5.7 2.1 -0.1
v -4.4 2.5 -0.8
v -4.4 2.5 -0.1
v -4.4 2.5 0
v -2.5 2.5 -0.8
v -2.5 2.5 -0.1
v -2.5 2.5 0
v 3.3 2.5 -0.8
v 3.3 2.5 -0.1
v 3.3 2.5 0
v 4.2 2.5 -0.8
v 4.2 2.5 -0.1
v 4.2 2.5 0
v 6.1 3.7 -0.8
v 6.1 3.7 -0.1
v 6.1 3.7 0
v 6.3 3.7 -0.8
v 6.3 3.7 -0.1
v 6.3 3.7 0
v 5.9 3.9 -0.8
v 5.9 3.9 -0.1
v 5.9 3.9 0
v 6.1 3.9 -0.8
v 6.1 3.9 -0.1
v 6.1 3.9 0
v 5.7 4 -0.8
v 5.7 4 -0.1
v 5.7 4 0
v 5.9 4 -0.8
v 5.9 4 -0.1
v 5.9 4 0
v -6.3 4.2 -0.8
v -6.3 4.2 -0.1
v -6.3 4.2 0
v -2.5 4.2 -0.8
v -2.5 4.2 -0.1
v -2.5 4.2 0
v -1.5 4.2 -0.8
v -1.5 4.2 -0.1
v -1.5 4.2 0
v 0.4 4.2 -0.8
v 0.4 4.2 -0.1
v 0.4 4.2 0
v 1.3 4.2 -0.8
v 1.3 4.2 -0.1
v 1.3 4.2 0
v 5.7 4.2 -0.8
v 5.7 4.2 -0.1
v 5.7 4.2 0
v -6.3 0 -0.8
v -4.4 0 -0.8
v -1.5 0 -0.8
v 0.4 0 -0.8
v 1.3 0 -0.8
v 5.5 0 -0.8
v 5.5 0.2 -0.8
v 5.9 0.2 -0.8
v 5.9 0.4 -0.8
v 6.1 0.4 -0.8
v 6.1 0.6 -0.8
v 6.3 0.6 -0.8
v 3.3 0.8 -0.8
v 4.2 0.8 -0.8
v 6.1 1.6 -0.8
v 6.3 1.6 -0.8
v -4.4 1.8 -0.8
v -2.5 1.8 -0.8
v 3.3 1.8 -0.8
v 4.2 1.8 -0.8
v 5.9 1.8 -0.8
v 6.1 1.8 -0.8
v 5.7 2 -0.8
v 5.9 2 -0.8
v 5.5 2.1 -0.8
v 5.7 2.1 -0.8
v 5.5 2.3 -0.8
v 5.9 2.3 -0.8
v -4.4 2.5 -0.8
v -2.5 2.5 -0.8
v 3.3 2.5 -0.8
v 4.2 2.5 -0.8
v 5.9 2.5 -0.8
v 6.1 2.5 -0.8
v 6.1 2.7 -0.8
v 6.3 2.7 -0.8
v -4.4 3.5 -0.8
v -2.5 3.5 -0.8
v 3.3 3.5 -0.8
v 4.2 3.5 -0.8
v 6.1 3.7 -0.8
v 6.3 3.7 -0.8
v 5.9 3.9 -0.8
v 6.1 3.9 -0.8
v 5.7 4 -0.8
v 5.9 4 -0.8
v -6.3 4.2 -0.8
v -2.5 4.2 -0.8
v -1.5 4.2 -0.8
v 0.4 4.2 -0.8
v 1.3 4.2 -0.8
v 5.7 4.2 -0.8
v 5.5 2.1 -0.1
v 5.7 2.1 -0.1
v 5.5 2.3 -0.1
v 5.7 2.3 -0.1
v -6.3 0 0
v -4.4 0 0
v -1.5 0 0
v 0.4 0 0
v 1.3 0 0
v 5.5 0 0
v 5.5 0.2 0
v 5.9 0.2 0
v 5.9 0.4 0
v 6.1 0.4 0
v 6.1 0.6 0
v 6.3 0.6 0
v 3.3 0.8 0
v 4.2 0.8 0
v 6.1 1.6 0
v 6.3 1.6 0
v -4.4 1.8 0
v -2.5 1.8 0
v 3.3 1.8 0
v 4.2 1.8 0
v 5.9 1.8 0
v 6.1 1.8 0
v 5.7 2 0
v 5.9 2 0
v 5.5 2.1 0
v 5.7 2.1 0
v 5.5 2.3 0
v 5.7 2.3 0
v 5.9 2.3 0
v -4.4 2.5 0
v -2.5 2.5 0
v 3.3 2.5 0
v 4.2 2.5 0
v 5.9 2.5 0
v 6.1 2.5 0
v 6.1 2.7 0
v 6.3 2.7 0
v -4.4 3.5 0
v -2.5 3.5 0
v 3.3 3.5 0
v 4.2 3.5 0
v 6.1 3.7 0
v 6.3 3.7 0
v 5.9 3.9 0
v 6.1 3.9 0
v 5.7 4 0
v 5.9 4 0
v -6.3 4.2 0
v -2.5 4.2 0
v -1.5 4.2 0
v 0.4 4.2 0
v 1.3 4.2 0
v 5.7 4.2 0

# faces
f 3/3/1 2/3/1 1/3/1
f 4/3/1 2/3/1 3/3/1
f 5/5/1 4/5/1 3/5/1
f 6/5/1 4/5/1 5/5/1
f 9/1/1 8/1/1 7/1/1
f 10/1/1 8/1/1 9/1/1
f 11/4/1 10/4/1 9/4/1
f 12/4/1 10/4/1 11/4/1
f 15/3/1 14/3/1 13/3/1
f 16/3/1 14/3/1 15/3/1
f 17/5/1 16/5/1 15/5/1
f 18/5/1 16/5/1 17/5/1
f 23/3/1 20/3/1 19/3/1
f 24/3/1 20/3/1 23/3/1
f 25/3/1 22/3/1 21/3/1
f 26/3/1 22/3/1 25/3/1
f 27/5/1 24/5/1 23/5/1
f 28/5/1 24/5/1 27/5/1
f 29/5/1 26/5/1 25/5/1
f 30/5/1 26/5/1 29/5/1
f 31/3/2 32/3/2 35/3/2
f 35/3/2 32/3/2 36/3/2
f 33/3/2 34/3/2 37/3/2
f 37/3/2 34/3/2 38/3/2
f 35/5/2 36/5/2 39/5/2
f 39/5/2 36/5/2 40/5/2
f 37/5/2 38/5/2 41/5/2
f 41/5/2 38/5/2 42/5/2
f 43/3/2 44/3/2 47/3/2
f 47/3/2 44/3/2 48/3/2
f 45/3/2 46/3/2 49/3/2
f 49/3/2 46/3/2 50/3/2
f 47/5/2 48/5/2 51/5/2
f 51/5/2 48/5/2 52/5/2
f 49/5/2 50/5/2 53/5/2
f 53/5/2 50/5/2 54/5/2
f 55/1/2 56/1/2 57/1/2
f 57/1/2 56/1/2 58/1/2
f 57/4/2 58/4/2 59/4/2
f 59/4/2 58/4/2 60/4/2
f 61/3/2 62/3/2 65/3/2
f 65/3/2 62/3/2 66/3/2
f 63/3/2 64/3/2 67/3/2
f 67/3/2 64/3/2 68/3/2
f 65/5/2 66/5/2 69/5/2
f 69/5/2 66/5/2 70/5/2
f 67/5/2 68/5/2 71/5/2
f 71/5/2 68/5/2 72/5/2
f 73/3/2 74/3/2 77/3/2
f 77/3/2 74/3/2 78/3/2
f 75/3/2 76/3/2 79/3/2
f 79/3/2 76/3/2 80/3/2
f 77/5/2 78/5/2 81/5/2
f 81/5/2 78/5/2 82/5/2
f 83/3/2 84/3/2 87/3/2
f 87/3/2 84/3/2 88/3/2
f 85/3/2 86/3/2 90/3/2
f 90/3/2 86/3/2 91/3/2
f 87/5/2 88/5/2 92/5/2
f 88/2/2 89/2/2 93/2/2
f 92/5/2 88/5/2 93/5/2
f 93/2/2 89/2/2 94/2/2
f 90/5/2 91/5/2 95/5/2
f 95/5/2 91/5/2 96/5/2
f 97/3/2 98/3/2 105/3/2
f 105/3/2 98/3/2 106/3/2
f 99/3/2 100/3/2 107/3/2
f 107/3/2 100/3/2 108/3/2
f 101/3/2 102/3/2 109/3/2
f 109/3/2 102/3/2 110/3/2
f 103/3/2 104/3/2 111/3/2
f 111/3/2 104/3/2 112/3/2
f 105/5/2 106/5/2 113/5/2
f 113/5/2 106/5/2 114/5/2
f 107/5/2 108/5/2 115/5/2
f 115/5/2 108/5/2 116/5/2
f 109/5/2 110/5/2 117/5/2
f 117/5/2 110/5/2 118/5/2
f 111/5/2 112/5/2 119/5/2
f 119/5/2 112/5/2 120/5/2
f 121/3/2 122/3/2 129/3/2
f 129/3/2 122/3/2 130/3/2
f 123/3/2 124/3/2 131/3/2
f 131/3/2 124/3/2 132/3/2
f 125/3/2 126/3/2 133/3/2
f 133/3/2 126/3/2 134/3/2
f 127/3/2 128/3/2 135/3/2
f 135/3/2 128/3/2 136/3/2
f 129/5/2 130/5/2 137/5/2
f 137/5/2 130/5/2 138/5/2
f 131/5/2 132/5/2 139/5/2
f 139/5/2 132/5/2 140/5/2
f 133/5/2 134/5/2 141/5/2
f 141/5/2 134/5/2 142/5/2
f 135/5/2 136/5/2 143/5/2
f 143/5/2 136/5/2 144/5/2
f 145/3/2 146/3/2 149/3/2
f 149/3/2 146/3/2 150/3/2
f 147/3/2 148/3/2 151/3/2
f 151/3/2 148/3/2 152/3/2
f 149/5/2 150/5/2 153/5/2
f 153/5/2 150/5/2 154/5/2
f 151/5/2 152/5/2 155/5/2
f 155/5/2 152/5/2 156/5/2
f 160/3/3 158/3/3 157/3/3
f 161/5/3 159/5/3 158/5/3
f 161/3/3 158/3/3 160/3/3
f 162/5/3 159/5/3 161/5/3
f 166/1/3 164/1/3 163/1/3
f 167/4/3 165/4/3 164/4/3
f 167/1/3 164/1/3 166/1/3
f 168/4/3 165/4/3 167/4/3
f 172/3/3 170/3/3 169/3/3
f 173/5/3 171/5/3 170/5/3
f 173/3/3 170/3/3 172/3/3
f 174/5/3 171/5/3 173/5/3
f 178/3/3 176/3/3 175/3/3
f 179/5/3 177/5/3 176/5/3
f 179/3/3 176/3/3 178/3/3
f 180/5/3 177/5/3 179/5/3
f 184/3/3 182/3/3 181/3/3
f 185/5/3 183/5/3 182/5/3
f 185/3/3 182/3/3 184/3/3
f 186/5/3 183/5/3 185/5/3
f 190/3/3 188/3/3 187/3/3
f 191/5/3 189/5/3 188/5/3
f 191/3/3 188/3/3 190/3/3
f 192/5/3 189/5/3 191/5/3
f 196/3/3 194/3/3 193/3/3
f 197/5/3 195/5/3 194/5/3
f 197/3/3 194/3/3 196/3/3
f 198/5/3 195/5/3 197/5/3
f 202/3/3 200/3/3 199/3/3
f 203/5/3 201/5/3 200/5/3
f 203/3/3 200/3/3 202/3/3
f 204/5/3 201/5/3 203/5/3
f 207/3/3 206/3/3 205/3/3
f 209/3/3 207/3/3 205/3/3
f 210/5/3 208/5/3 207/5/3
f 210/3/3 207/3/3 209/3/3
f 211/5/3 208/5/3 210/5/3
f 215/3/3 213/3/3 212/3/3
f 216/5/3 214/5/3 213/5/3
f 216/3/3 213/3/3 215/3/3
f 217/5/3 214/5/3 216/5/3
f 221/3/3 219/3/3 218/3/3
f 222/5/3 220/5/3 219/5/3
f 222/3/3 219/3/3 221/3/3
f 223/5/3 220/5/3 222/5/3
f 227/3/3 225/3/3 224/3/3
f 228/5/3 226/5/3 225/5/3
f 228/3/3 225/3/3 227/3/3
f 229/5/3 226/5/3 228/5/3
f 233/3/3 231/3/3 230/3/3
f 234/5/3 232/5/3 231/5/3
f 234/3/3 231/3/3 233/3/3
f 235/5/3 232/5/3 234/5/3
f 236/3/4 237/3/4 239/3/4
f 237/5/4 238/5/4 240/5/4
f 239/3/4 237/3/4 240/3/4
f 240/5/4 238/5/4 241/5/4
f 242/3/4 243/3/4 245/3/4
f 243/5/4 244/5/4 246/5/4
f 245/3/4 243/3/4 246/3/4
f 246/5/4 244/5/4 247/5/4
f 248/3/4 249/3/4 251/3/4
f 249/5/4 250/5/4 252/5/4
f 251/3/4 249/3/4 252/3/4
f 252/5/4 250/5/4 253/5/4
f 254/3/4 255/3/4 257/3/4
f 255/5/4 256/5/4 258/5/4
f 257/3/4 255/3/4 258/3/4
f 258/5/4 256/5/4 259/5/4
f 260/3/4 261/3/4 262/3/4
f 262/3/4 261/3/4 263/3/4
f 264/3/4 265/3/4 267/3/4
f 265/5/4 266/5/4 268/5/4
f 267/3/4 265/3/4 268/3/4
f 268/5/4 266/5/4 269/5/4
f 270/3/4 271/3/4 273/3/4
f 271/5/4 272/5/4 274/5/4
f 273/3/4 271/3/4 274/3/4
f 274/5/4 272/5/4 275/5/4
f 276/3/4 277/3/4 279/3/4
f 277/5/4 278/5/4 280/5/4
f 279/3/4 277/3/4 280/3/4
f 280/5/4 278/5/4 281/5/4
f 282/3/4 283/3/4 285/3/4
f 283/5/4 284/5/4 286/5/4
f 285/3/4 283/3/4 286/3/4
f 286/5/4 284/5/4 287/5/4
f 288/3/4 289/3/4 291/3/4
f 289/5/4 290/5/4 292/5/4
f 291/3/4 289/3/4 292/3/4
f 292/5/4 290/5/4 293/5/4
f 294/3/4 295/3/4 297/3/4
f 295/5/4 296/5/4 298/5/4
f 297/3/4 295/3/4 298/3/4
f 298/5/4 296/5/4 299/5/4
f 300/1/4 301/1/4 303/1/4
f 301/4/4 302/4/4 304/4/4
f 303/1/4 301/1/4 304/1/4
f 304/4/4 302/4/4 305/4/4
f 306/3/4 307/3/4 309/3/4
f 307/5/4 308/5/4 310/5/4
f 309/3/4 307/3/4 310/3/4
f 310/5/4 308/5/4 311/5/4
f 318/3/5 317/3/5 316/3/5
f 320/3/5 319/3/5 318/3/5
f 322/3/5 321/3/5 320/3/5
f 324/3/5 318/3/5 316/3/5
f 324/3/5 323/3/5 322/3/5
f 324/3/5 322/3/5 320/3/5
f 324/3/5 320/3/5 318/3/5
f 325/3/5 323/3/5 324/3/5
f 326/3/5 323/3/5 325/3/5
f 327/3/5 323/3/5 326/3/5
f 328/3/5 313/3/5 312/3/5
f 330/3/5 324/3/5 316/3/5
f 331/3/5 326/3/5 325/3/5
f 332/3/5 326/3/5 331/3/5
f 333/3/5 326/3/5 332/3/5
f 334/3/5 331/3/5 330/3/5
f 334/3/5 332/3/5 331/3/5
f 335/3/5 332/3/5 334/3/5
f 336/3/5 334/3/5 330/3/5
f 337/3/5 334/3/5 336/3/5
f 338/3/5 336/3/5 330/3/5
f 340/3/5 329/3/5 328/3/5
f 340/3/5 328/3/5 312/3/5
f 341/3/5 329/3/5 340/3/5
f 342/3/5 339/3/5 338/3/5
f 342/3/5 330/3/5 316/3/5
f 342/3/5 338/3/5 330/3/5
f 343/3/5 339/3/5 342/3/5
f 344/3/5 339/3/5 343/3/5
f 346/3/5 345/3/5 344/3/5
f 346/3/5 344/3/5 343/3/5
f 348/3/5 340/3/5 312/3/5
f 350/3/5 342/3/5 316/3/5
f 351/3/5 347/3/5 346/3/5
f 351/3/5 346/3/5 343/3/5
f 352/3/5 347/3/5 351/3/5
f 352/3/5 351/3/5 350/3/5
f 353/3/5 347/3/5 352/3/5
f 354/3/5 352/3/5 350/3/5
f 355/3/5 352/3/5 354/3/5
f 356/3/5 354/3/5 350/3/5
f 357/3/5 354/3/5 356/3/5
f 358/3/5 349/3/5 348/3/5
f 358/3/5 348/3/5 312/3/5
f 359/3/5 349/3/5 358/3/5
f 360/1/5 315/1/5 314/1/5
f 361/1/5 315/1/5 360/1/5
f 362/3/5 350/3/5 316/3/5
f 362/3/5 356/3/5 350/3/5
f 363/3/5 356/3/5 362/3/5
f 366/2/5 365/2/5 364/2/5
f 367/2/5 365/2/5 366/2/5
f 372/5/6 373/5/6 374/5/6
f 374/5/6 375/5/6 376/5/6
f 376/5/6 377/5/6 378/5/6
f 372/5/6 374/5/6 380/5/6
f 378/5/6 379/5/6 380/5/6
f 376/5/6 378/5/6 380/5/6
f 374/5/6 376/5/6 380/5/6
f 380/5/6 379/5/6 381/5/6
f 381/5/6 379/5/6 382/5/6
f 382/5/6 379/5/6 383/5/6
f 368/5/6 369/5/6 384/5/6
f 372/5/6 380/5/6 386/5/6
f 381/5/6 382/5/6 387/5/6
f 387/5/6 382/5/6 388/5/6
f 388/5/6 382/5/6 389/5/6
f 386/5/6 387/5/6 390/5/6
f 387/5/6 388/5/6 390/5/6
f 390/5/6 388/5/6 391/5/6
f 386/5/6 390/5/6 392/5/6
f 392/5/6 390/5/6 393/5/6
f 386/5/6 392/5/6 394/5/6
f 392/2/6 393/2/6 394/2/6
f 394/2/6 393/2/6 395/2/6
f 384/5/6 385/5/6 397/5/6
f 368/5/6 384/5/6 397/5/6
f 397/5/6 385/5/6 398/5/6
f 395/5/6 396/5/6 399/5/6
f 372/5/6 386/5/6 399/5/6
f 386/5/6 394/5/6 399/5/6
f 394/5/6 395/5/6 399/5/6
f 399/5/6 396/5/6 400/5/6
f 400/5/6 396/5/6 401/5/6
f 401/5/6 402/5/6 403/5/6
f 400/5/6 401/5/6 403/5/6
f 368/5/6 397/5/6 405/5/6
f 372/5/6 399/5/6 407/5/6
f 403/5/6 404/5/6 408/5/6
f 400/5/6 403/5/6 408/5/6
f 408/5/6 404/5/6 409/5/6
f 407/5/6 408/5/6 409/5/6
f 409/5/6 404/5/6 410/5/6
f 407/5/6 409/5/6 411/5/6
f 411/5/6 409/5/6 412/5/6
f 407/5/6 411/5/6 413/5/6
f 413/5/6 411/5/6 414/5/6
f 405/5/6 406/5/6 415/5/6
f 368/5/6 405/5/6 415/5/6
f 415/5/6 406/5/6 416/5/6
f 370/4/6 371/4/6 417/4/6
f 417/4/6 371/4/6 418/4/6
f 372/5/6 407/5/6 419/5/6
f 407/5/6 413/5/6 419/5/6
f 419/5/6 413/5/6 420/5/6
