# MagicaVoxel @ Ephtracy

# group
o 

# material
mtllib pincho_03.mtl
usemtl palette

# normals
vn -1 0 0
vn 1 0 0
vn 0 0 1
vn 0 0 -1
vn 0 -1 0
vn 0 1 0

# texcoords
vt 0.919922 0.5
vt 0.958984 0.5
vt 0.978516 0.5
vt 0.990234 0.5

# verts
v 0 2 0
v 0 2 -4.1
v 0 2.1 0
v 0 2.1 -4.1
v 0 2.2 0
v 0 2.2 -4.1
v 0 2.3 0
v 0 2.3 -4.1
v 0.3 2.3 -0.6
v 0.3 2.3 -0.7
v 0.3 2.3 -1.6
v 0.3 3.3 -0.6
v 0.3 3.3 -0.7
v 0.3 3.3 -1.6
v 0.7 3.3 -0.6
v 0.7 3.3 -0.7
v 0.7 3.3 -1.6
v 0.7 4.2 -0.6
v 0.7 4.2 -0.7
v 0.7 4.2 -1.6
v 1.2 4.2 -0.6
v 1.2 4.2 -0.7
v 1.2 4.2 -1.6
v 1.2 5.2 -0.6
v 1.2 5.2 -0.7
v 1.2 5.2 -1.6
v 1.7 5.2 -0.6
v 1.7 5.2 -0.7
v 1.7 5.2 -1.6
v 1.7 6.1 -0.6
v 1.7 6.1 -0.7
v 1.7 6.1 -1.6
v 2.4 5.2 -0.6
v 2.4 5.2 -0.7
v 2.4 5.2 -1.6
v 2.4 6.1 -0.6
v 2.4 6.1 -0.7
v 2.4 6.1 -1.6
v 2.9 4.2 -0.6
v 2.9 4.2 -0.7
v 2.9 4.2 -1.6
v 2.9 5.2 -0.6
v 2.9 5.2 -0.7
v 2.9 5.2 -1.6
v 3.4 3.3 -0.6
v 3.4 3.3 -0.7
v 3.4 3.3 -1.6
v 3.4 4.2 -0.6
v 3.4 4.2 -0.7
v 3.4 4.2 -1.6
v 3.8 2.3 -0.6
v 3.8 2.3 -0.7
v 3.8 2.3 -1.6
v 3.8 3.3 -0.6
v 3.8 3.3 -0.7
v 3.8 3.3 -1.6
v 4.1 2 0
v 4.1 2 -4.1
v 4.1 2.1 0
v 4.1 2.1 -4.1
v 4.1 2.2 0
v 4.1 2.2 -4.1
v 4.1 2.3 0
v 4.1 2.3 -4.1
v 0 2 0
v 0 2.1 0
v 0 2.2 0
v 0 2.3 0
v 4.1 2 0
v 4.1 2.1 0
v 4.1 2.2 0
v 4.1 2.3 0
v 0.3 2.3 -0.6
v 0.3 3.3 -0.6
v 0.4 2.3 -0.6
v 0.4 3.2 -0.6
v 0.7 3.3 -0.6
v 0.7 4.2 -0.6
v 0.8 3.2 -0.6
v 0.8 4.1 -0.6
v 1.2 4.2 -0.6
v 1.2 5.2 -0.6
v 1.3 4.1 -0.6
v 1.3 5.1 -0.6
v 1.7 5.2 -0.6
v 1.7 6.1 -0.6
v 1.8 5.1 -0.6
v 1.8 6 -0.6
v 2.3 5.1 -0.6
v 2.3 6 -0.6
v 2.4 5.2 -0.6
v 2.4 6.1 -0.6
v 2.8 4.1 -0.6
v 2.8 5.1 -0.6
v 2.9 4.2 -0.6
v 2.9 5.2 -0.6
v 3.3 3.2 -0.6
v 3.3 4.1 -0.6
v 3.4 3.3 -0.6
v 3.4 4.2 -0.6
v 3.7 2.3 -0.6
v 3.7 3.2 -0.6
v 3.8 2.3 -0.6
v 3.8 3.3 -0.6
v 0.3 2.3 -1.6
v 0.3 3.3 -1.6
v 0.7 3.3 -1.6
v 0.7 4.2 -1.6
v 1.2 4.2 -1.6
v 1.2 5.2 -1.6
v 1.7 5.2 -1.6
v 1.7 6.1 -1.6
v 2.4 5.2 -1.6
v 2.4 6.1 -1.6
v 2.9 4.2 -1.6
v 2.9 5.2 -1.6
v 3.4 3.3 -1.6
v 3.4 4.2 -1.6
v 3.8 2.3 -1.6
v 3.8 3.3 -1.6
v 0 2 -4.1
v 0 2.1 -4.1
v 0 2.2 -4.1
v 0 2.3 -4.1
v 4.1 2 -4.1
v 4.1 2.1 -4.1
v 4.1 2.2 -4.1
v 4.1 2.3 -4.1
v 0 2 0
v 4.1 2 0
v 0 2 -4.1
v 4.1 2 -4.1
v 0 2.3 0
v 4.1 2.3 0
v 0.3 2.3 -0.6
v 0.4 2.3 -0.6
v 3.7 2.3 -0.6
v 3.8 2.3 -0.6
v 0.3 2.3 -0.7
v 3.8 2.3 -0.7
v 0.3 2.3 -1.6
v 3.8 2.3 -1.6
v 0 2.3 -4.1
v 4.1 2.3 -4.1
v 0.3 3.3 -0.6
v 0.7 3.3 -0.6
v 3.4 3.3 -0.6
v 3.8 3.3 -0.6
v 0.3 3.3 -0.7
v 0.7 3.3 -0.7
v 3.4 3.3 -0.7
v 3.8 3.3 -0.7
v 0.3 3.3 -1.6
v 0.7 3.3 -1.6
v 3.4 3.3 -1.6
v 3.8 3.3 -1.6
v 0.7 4.2 -0.6
v 1.2 4.2 -0.6
v 2.9 4.2 -0.6
v 3.4 4.2 -0.6
v 0.7 4.2 -0.7
v 1.2 4.2 -0.7
v 2.9 4.2 -0.7
v 3.4 4.2 -0.7
v 0.7 4.2 -1.6
v 1.2 4.2 -1.6
v 2.9 4.2 -1.6
v 3.4 4.2 -1.6
v 1.2 5.2 -0.6
v 1.7 5.2 -0.6
v 2.4 5.2 -0.6
v 2.9 5.2 -0.6
v 1.2 5.2 -0.7
v 1.7 5.2 -0.7
v 2.4 5.2 -0.7
v 2.9 5.2 -0.7
v 1.2 5.2 -1.6
v 1.7 5.2 -1.6
v 2.4 5.2 -1.6
v 2.9 5.2 -1.6
v 1.7 6.1 -0.6
v 2.4 6.1 -0.6
v 1.7 6.1 -0.7
v 2.4 6.1 -0.7
v 1.7 6.1 -1.6
v 2.4 6.1 -1.6

# faces
f 3/4/1 2/4/1 1/4/1
f 4/4/1 2/4/1 3/4/1
f 5/3/1 4/3/1 3/3/1
f 6/3/1 4/3/1 5/3/1
f 7/4/1 6/4/1 5/4/1
f 8/4/1 6/4/1 7/4/1
f 12/2/1 10/2/1 9/2/1
f 13/3/1 11/3/1 10/3/1
f 13/2/1 10/2/1 12/2/1
f 14/3/1 11/3/1 13/3/1
f 18/2/1 16/2/1 15/2/1
f 19/3/1 17/3/1 16/3/1
f 19/2/1 16/2/1 18/2/1
f 20/3/1 17/3/1 19/3/1
f 24/2/1 22/2/1 21/2/1
f 25/3/1 23/3/1 22/3/1
f 25/2/1 22/2/1 24/2/1
f 26/3/1 23/3/1 25/3/1
f 30/2/1 28/2/1 27/2/1
f 31/3/1 29/3/1 28/3/1
f 31/2/1 28/2/1 30/2/1
f 32/3/1 29/3/1 31/3/1
f 33/2/2 34/2/2 36/2/2
f 34/3/2 35/3/2 37/3/2
f 36/2/2 34/2/2 37/2/2
f 37/3/2 35/3/2 38/3/2
f 39/2/2 40/2/2 42/2/2
f 40/3/2 41/3/2 43/3/2
f 42/2/2 40/2/2 43/2/2
f 43/3/2 41/3/2 44/3/2
f 45/2/2 46/2/2 48/2/2
f 46/3/2 47/3/2 49/3/2
f 48/2/2 46/2/2 49/2/2
f 49/3/2 47/3/2 50/3/2
f 51/2/2 52/2/2 54/2/2
f 52/3/2 53/3/2 55/3/2
f 54/2/2 52/2/2 55/2/2
f 55/3/2 53/3/2 56/3/2
f 57/4/2 58/4/2 59/4/2
f 59/4/2 58/4/2 60/4/2
f 59/3/2 60/3/2 61/3/2
f 61/3/2 60/3/2 62/3/2
f 61/4/2 62/4/2 63/4/2
f 63/4/2 62/4/2 64/4/2
f 69/4/3 66/4/3 65/4/3
f 70/3/3 67/3/3 66/3/3
f 70/4/3 66/4/3 69/4/3
f 71/4/3 68/4/3 67/4/3
f 71/3/3 67/3/3 70/3/3
f 72/4/3 68/4/3 71/4/3
f 75/2/3 74/2/3 73/2/3
f 76/2/3 74/2/3 75/2/3
f 77/2/3 74/2/3 76/2/3
f 79/4/3 76/4/3 75/4/3
f 79/2/3 78/2/3 77/2/3
f 79/2/3 77/2/3 76/2/3
f 80/2/3 78/2/3 79/2/3
f 81/2/3 78/2/3 80/2/3
f 83/4/3 80/4/3 79/4/3
f 83/2/3 82/2/3 81/2/3
f 83/2/3 81/2/3 80/2/3
f 84/2/3 82/2/3 83/2/3
f 85/2/3 82/2/3 84/2/3
f 87/4/3 84/4/3 83/4/3
f 87/2/3 86/2/3 85/2/3
f 87/2/3 85/2/3 84/2/3
f 88/2/3 86/2/3 87/2/3
f 89/4/3 87/4/3 83/4/3
f 89/4/3 88/4/3 87/4/3
f 90/2/3 86/2/3 88/2/3
f 90/4/3 88/4/3 89/4/3
f 91/2/3 90/2/3 89/2/3
f 92/2/3 86/2/3 90/2/3
f 92/2/3 90/2/3 91/2/3
f 93/4/3 83/4/3 79/4/3
f 93/4/3 89/4/3 83/4/3
f 94/2/3 91/2/3 89/2/3
f 94/4/3 89/4/3 93/4/3
f 95/2/3 94/2/3 93/2/3
f 96/2/3 91/2/3 94/2/3
f 96/2/3 94/2/3 95/2/3
f 97/4/3 79/4/3 75/4/3
f 97/4/3 93/4/3 79/4/3
f 98/2/3 95/2/3 93/2/3
f 98/4/3 93/4/3 97/4/3
f 99/2/3 98/2/3 97/2/3
f 100/2/3 95/2/3 98/2/3
f 100/2/3 98/2/3 99/2/3
f 101/4/3 97/4/3 75/4/3
f 102/2/3 99/2/3 97/2/3
f 102/4/3 97/4/3 101/4/3
f 103/2/3 102/2/3 101/2/3
f 104/2/3 99/2/3 102/2/3
f 104/2/3 102/2/3 103/2/3
f 105/3/4 106/3/4 107/3/4
f 107/3/4 108/3/4 109/3/4
f 109/3/4 110/3/4 111/3/4
f 109/3/4 111/3/4 113/3/4
f 111/3/4 112/3/4 113/3/4
f 113/3/4 112/3/4 114/3/4
f 107/3/4 109/3/4 115/3/4
f 109/3/4 113/3/4 115/3/4
f 115/3/4 113/3/4 116/3/4
f 105/3/4 107/3/4 117/3/4
f 107/3/4 115/3/4 117/3/4
f 117/3/4 115/3/4 118/3/4
f 105/3/4 117/3/4 119/3/4
f 119/3/4 117/3/4 120/3/4
f 121/4/4 122/4/4 125/4/4
f 122/3/4 123/3/4 126/3/4
f 125/4/4 122/4/4 126/4/4
f 123/4/4 124/4/4 127/4/4
f 126/3/4 123/3/4 127/3/4
f 127/4/4 124/4/4 128/4/4
f 131/4/5 130/4/5 129/4/5
f 132/4/5 130/4/5 131/4/5
f 133/4/6 134/4/6 135/4/6
f 135/4/6 134/4/6 136/4/6
f 136/4/6 134/4/6 137/4/6
f 137/4/6 134/4/6 138/4/6
f 133/4/6 135/4/6 139/4/6
f 138/4/6 134/4/6 140/4/6
f 133/4/6 139/4/6 141/4/6
f 140/4/6 134/4/6 142/4/6
f 133/4/6 141/4/6 143/4/6
f 141/4/6 142/4/6 143/4/6
f 142/4/6 134/4/6 144/4/6
f 143/4/6 142/4/6 144/4/6
f 145/2/6 146/2/6 149/2/6
f 149/2/6 146/2/6 150/2/6
f 147/2/6 148/2/6 151/2/6
f 151/2/6 148/2/6 152/2/6
f 149/3/6 150/3/6 153/3/6
f 153/3/6 150/3/6 154/3/6
f 151/3/6 152/3/6 155/3/6
f 155/3/6 152/3/6 156/3/6
f 157/2/6 158/2/6 161/2/6
f 161/2/6 158/2/6 162/2/6
f 159/2/6 160/2/6 163/2/6
f 163/2/6 160/2/6 164/2/6
f 161/3/6 162/3/6 165/3/6
f 165/3/6 162/3/6 166/3/6
f 163/3/6 164/3/6 167/3/6
f 167/3/6 164/3/6 168/3/6
f 169/2/6 170/2/6 173/2/6
f 173/2/6 170/2/6 174/2/6
f 171/2/6 172/2/6 175/2/6
f 175/2/6 172/2/6 176/2/6
f 173/3/6 174/3/6 177/3/6
f 177/3/6 174/3/6 178/3/6
f 175/3/6 176/3/6 179/3/6
f 179/3/6 176/3/6 180/3/6
f 181/2/6 182/2/6 183/2/6
f 183/2/6 182/2/6 184/2/6
f 183/3/6 184/3/6 185/3/6
f 185/3/6 184/3/6 186/3/6
