# MagicaVoxel @ Ephtracy

# group
o 

# material
mtllib slideChase_ON_02.mtl
usemtl palette

# normals
vn -1 0 0
vn 1 0 0
vn 0 0 1
vn 0 0 -1
vn 0 -1 0
vn 0 1 0

# texcoords
vt 0.0605469 0.5
vt 0.400391 0.5
vt 0.958984 0.5
vt 0.966797 0.5
vt 0.990234 0.5

# verts
v 0 2 0
v 0 2 -2
v 0 2.2 -0.2
v 0 2.2 -1.8
v 0 2.4 -0.4
v 0 2.4 -1.6
v 0 9.6 -0.4
v 0 9.6 -1.6
v 0 9.8 -0.2
v 0 9.8 -1.8
v 0 10 0
v 0 10 -2
v 2 2 0
v 2 2 -2
v 2 2.2 -0.2
v 2 2.2 -1.8
v 2 2.4 -0.4
v 2 2.4 -1.6
v 2 9.6 -0.4
v 2 9.6 -1.6
v 2 9.8 -0.2
v 2 9.8 -1.8
v 2 10 0
v 2 10 -2
v 0 2 0
v 0 10 0
v 0.2 2.2 0
v 0.2 9.8 0
v 0.4 2.4 0
v 0.4 9.6 0
v 1.6 2.4 0
v 1.6 9.6 0
v 1.8 2.2 0
v 1.8 9.8 0
v 2 2 0
v 2 10 0
v 0 2 -2
v 0 10 -2
v 0.2 2.2 -2
v 0.2 9.8 -2
v 0.4 2.4 -2
v 0.4 9.6 -2
v 1.6 2.4 -2
v 1.6 9.6 -2
v 1.8 2.2 -2
v 1.8 9.8 -2
v 2 2 -2
v 2 10 -2
v 0 2 0
v 2 2 0
v 0.2 2 -0.2
v 1.8 2 -0.2
v 0.4 2 -0.4
v 1.6 2 -0.4
v 0.4 2 -1.6
v 1.6 2 -1.6
v 0.2 2 -1.8
v 1.8 2 -1.8
v 0 2 -2
v 2 2 -2
v 0 10 0
v 2 10 0
v 0.2 10 -0.2
v 1.8 10 -0.2
v 0.4 10 -0.4
v 1.6 10 -0.4
v 0.4 10 -1.6
v 1.6 10 -1.6
v 0.2 10 -1.8
v 1.8 10 -1.8
v 0 10 -2
v 2 10 -2

# faces
f 3/2/1 2/2/1 1/2/1
f 4/2/1 2/2/1 3/2/1
f 5/1/1 4/1/1 3/1/1
f 6/1/1 4/1/1 5/1/1
f 7/1/1 5/1/1 3/1/1
f 7/5/1 6/5/1 5/5/1
f 8/1/1 4/1/1 6/1/1
f 8/5/1 6/5/1 7/5/1
f 9/2/1 3/2/1 1/2/1
f 9/1/1 7/1/1 3/1/1
f 9/1/1 8/1/1 7/1/1
f 10/1/1 4/1/1 8/1/1
f 10/1/1 8/1/1 9/1/1
f 10/2/1 2/2/1 4/2/1
f 11/2/1 9/2/1 1/2/1
f 11/2/1 10/2/1 9/2/1
f 12/2/1 2/2/1 10/2/1
f 12/2/1 10/2/1 11/2/1
f 13/2/2 14/2/2 15/2/2
f 15/2/2 14/2/2 16/2/2
f 15/1/2 16/1/2 17/1/2
f 17/1/2 16/1/2 18/1/2
f 15/1/2 17/1/2 19/1/2
f 17/5/2 18/5/2 19/5/2
f 18/1/2 16/1/2 20/1/2
f 19/5/2 18/5/2 20/5/2
f 13/2/2 15/2/2 21/2/2
f 15/1/2 19/1/2 21/1/2
f 19/1/2 20/1/2 21/1/2
f 20/1/2 16/1/2 22/1/2
f 21/1/2 20/1/2 22/1/2
f 16/2/2 14/2/2 22/2/2
f 13/2/2 21/2/2 23/2/2
f 21/2/2 22/2/2 23/2/2
f 22/2/2 14/2/2 24/2/2
f 23/2/2 22/2/2 24/2/2
f 27/2/3 26/2/3 25/2/3
f 28/2/3 26/2/3 27/2/3
f 29/1/3 28/1/3 27/1/3
f 30/1/3 28/1/3 29/1/3
f 31/1/3 29/1/3 27/1/3
f 31/5/3 30/5/3 29/5/3
f 32/1/3 28/1/3 30/1/3
f 32/5/3 30/5/3 31/5/3
f 33/2/3 27/2/3 25/2/3
f 33/1/3 31/1/3 27/1/3
f 33/1/3 32/1/3 31/1/3
f 34/1/3 28/1/3 32/1/3
f 34/1/3 32/1/3 33/1/3
f 34/2/3 26/2/3 28/2/3
f 35/2/3 33/2/3 25/2/3
f 35/2/3 34/2/3 33/2/3
f 36/2/3 26/2/3 34/2/3
f 36/2/3 34/2/3 35/2/3
f 37/2/4 38/2/4 39/2/4
f 39/2/4 38/2/4 40/2/4
f 39/1/4 40/1/4 41/1/4
f 41/1/4 40/1/4 42/1/4
f 39/1/4 41/1/4 43/1/4
f 41/5/4 42/5/4 43/5/4
f 42/1/4 40/1/4 44/1/4
f 43/5/4 42/5/4 44/5/4
f 37/2/4 39/2/4 45/2/4
f 39/1/4 43/1/4 45/1/4
f 43/1/4 44/1/4 45/1/4
f 44/1/4 40/1/4 46/1/4
f 45/1/4 44/1/4 46/1/4
f 40/2/4 38/2/4 46/2/4
f 37/2/4 45/2/4 47/2/4
f 45/2/4 46/2/4 47/2/4
f 46/2/4 38/2/4 48/2/4
f 47/2/4 46/2/4 48/2/4
f 51/2/5 50/2/5 49/2/5
f 52/2/5 50/2/5 51/2/5
f 53/1/5 52/1/5 51/1/5
f 54/1/5 52/1/5 53/1/5
f 55/1/5 53/1/5 51/1/5
f 55/5/5 54/5/5 53/5/5
f 56/1/5 52/1/5 54/1/5
f 56/5/5 54/5/5 55/5/5
f 57/2/5 51/2/5 49/2/5
f 57/1/5 55/1/5 51/1/5
f 57/1/5 56/1/5 55/1/5
f 58/1/5 52/1/5 56/1/5
f 58/1/5 56/1/5 57/1/5
f 58/2/5 50/2/5 52/2/5
f 59/2/5 57/2/5 49/2/5
f 59/2/5 58/2/5 57/2/5
f 60/2/5 50/2/5 58/2/5
f 60/2/5 58/2/5 59/2/5
f 61/2/6 62/2/6 63/2/6
f 63/2/6 62/2/6 64/2/6
f 63/1/6 64/1/6 65/1/6
f 65/1/6 64/1/6 66/1/6
f 63/1/6 65/1/6 67/1/6
f 65/5/6 66/5/6 67/5/6
f 66/1/6 64/1/6 68/1/6
f 67/5/6 66/5/6 68/5/6
f 61/2/6 63/2/6 69/2/6
f 63/1/6 67/1/6 69/1/6
f 67/1/6 68/1/6 69/1/6
f 68/1/6 64/1/6 70/1/6
f 69/1/6 68/1/6 70/1/6
f 64/2/6 62/2/6 70/2/6
f 61/2/6 69/2/6 71/2/6
f 69/2/6 70/2/6 71/2/6
f 70/2/6 62/2/6 72/2/6
f 71/2/6 70/2/6 72/2/6
