# MagicaVoxel @ Ephtracy

# group
o 

# material
mtllib slideEscape_OFF_03.mtl
usemtl palette

# normals
vn -1 0 0
vn 1 0 0
vn 0 0 1
vn 0 0 -1
vn 0 -1 0
vn 0 1 0

# texcoords
vt 0.958984 0.5
vt 0.966797 0.5
vt 0.986328 0.5
vt 0.990234 0.5

# verts
v 0 2 0
v 0 2 -2
v 0 2.2 -0.2
v 0 2.2 -1.8
v 0 2.4 -0.4
v 0 2.4 -1.6
v 0 9.6 -0.4
v 0 9.6 -1.6
v 0 9.8 -0.2
v 0 9.8 -1.8
v 0 10 0
v 0 10 -2
v 2 2 0
v 2 2 -2
v 2 2.2 -0.2
v 2 2.2 -1.8
v 2 2.4 -0.4
v 2 2.4 -1.6
v 2 9.6 -0.4
v 2 9.6 -1.6
v 2 9.8 -0.2
v 2 9.8 -1.8
v 2 10 0
v 2 10 -2
v 0 2 0
v 0 10 0
v 0.2 2.2 0
v 0.2 9.8 0
v 0.4 2.4 0
v 0.4 9.6 0
v 1.6 2.4 0
v 1.6 9.6 0
v 1.8 2.2 0
v 1.8 9.8 0
v 2 2 0
v 2 10 0
v 0 2 -2
v 0 10 -2
v 0.2 2.2 -2
v 0.2 9.8 -2
v 0.4 2.4 -2
v 0.4 9.6 -2
v 1.6 2.4 -2
v 1.6 9.6 -2
v 1.8 2.2 -2
v 1.8 9.8 -2
v 2 2 -2
v 2 10 -2
v 0 2 0
v 2 2 0
v 0.2 2 -0.2
v 1.8 2 -0.2
v 0.4 2 -0.4
v 1.6 2 -0.4
v 0.4 2 -1.6
v 1.6 2 -1.6
v 0.2 2 -1.8
v 1.8 2 -1.8
v 0 2 -2
v 2 2 -2
v 0 10 0
v 2 10 0
v 0.2 10 -0.2
v 1.8 10 -0.2
v 0.4 10 -0.4
v 1.6 10 -0.4
v 0.4 10 -1.6
v 1.6 10 -1.6
v 0.2 10 -1.8
v 1.8 10 -1.8
v 0 10 -2
v 2 10 -2

# faces
f 3/3/1 2/3/1 1/3/1
f 4/3/1 2/3/1 3/3/1
f 5/4/1 4/4/1 3/4/1
f 6/4/1 4/4/1 5/4/1
f 7/4/1 5/4/1 3/4/1
f 7/2/1 6/2/1 5/2/1
f 8/4/1 4/4/1 6/4/1
f 8/2/1 6/2/1 7/2/1
f 9/3/1 3/3/1 1/3/1
f 9/4/1 7/4/1 3/4/1
f 9/4/1 8/4/1 7/4/1
f 10/4/1 4/4/1 8/4/1
f 10/4/1 8/4/1 9/4/1
f 10/3/1 2/3/1 4/3/1
f 11/3/1 9/3/1 1/3/1
f 11/3/1 10/3/1 9/3/1
f 12/3/1 2/3/1 10/3/1
f 12/3/1 10/3/1 11/3/1
f 13/3/2 14/3/2 15/3/2
f 15/3/2 14/3/2 16/3/2
f 15/4/2 16/4/2 17/4/2
f 17/4/2 16/4/2 18/4/2
f 15/4/2 17/4/2 19/4/2
f 17/2/2 18/2/2 19/2/2
f 18/4/2 16/4/2 20/4/2
f 19/2/2 18/2/2 20/2/2
f 13/3/2 15/3/2 21/3/2
f 15/4/2 19/4/2 21/4/2
f 19/4/2 20/4/2 21/4/2
f 20/4/2 16/4/2 22/4/2
f 21/4/2 20/4/2 22/4/2
f 16/3/2 14/3/2 22/3/2
f 13/3/2 21/3/2 23/3/2
f 21/3/2 22/3/2 23/3/2
f 22/3/2 14/3/2 24/3/2
f 23/3/2 22/3/2 24/3/2
f 27/3/3 26/3/3 25/3/3
f 28/3/3 26/3/3 27/3/3
f 29/4/3 28/4/3 27/4/3
f 30/4/3 28/4/3 29/4/3
f 31/4/3 29/4/3 27/4/3
f 31/2/3 30/2/3 29/2/3
f 32/4/3 28/4/3 30/4/3
f 32/2/3 30/2/3 31/2/3
f 33/3/3 27/3/3 25/3/3
f 33/4/3 31/4/3 27/4/3
f 33/4/3 32/4/3 31/4/3
f 34/4/3 28/4/3 32/4/3
f 34/4/3 32/4/3 33/4/3
f 34/3/3 26/3/3 28/3/3
f 35/3/3 33/3/3 25/3/3
f 35/3/3 34/3/3 33/3/3
f 36/3/3 26/3/3 34/3/3
f 36/3/3 34/3/3 35/3/3
f 37/3/4 38/3/4 39/3/4
f 39/3/4 38/3/4 40/3/4
f 39/4/4 40/4/4 41/4/4
f 41/4/4 40/4/4 42/4/4
f 39/4/4 41/4/4 43/4/4
f 41/2/4 42/2/4 43/2/4
f 42/4/4 40/4/4 44/4/4
f 43/2/4 42/2/4 44/2/4
f 37/3/4 39/3/4 45/3/4
f 39/4/4 43/4/4 45/4/4
f 43/4/4 44/4/4 45/4/4
f 44/4/4 40/4/4 46/4/4
f 45/4/4 44/4/4 46/4/4
f 40/3/4 38/3/4 46/3/4
f 37/3/4 45/3/4 47/3/4
f 45/3/4 46/3/4 47/3/4
f 46/3/4 38/3/4 48/3/4
f 47/3/4 46/3/4 48/3/4
f 51/3/5 50/3/5 49/3/5
f 52/3/5 50/3/5 51/3/5
f 53/4/5 52/4/5 51/4/5
f 54/4/5 52/4/5 53/4/5
f 55/4/5 53/4/5 51/4/5
f 55/2/5 54/2/5 53/2/5
f 56/4/5 52/4/5 54/4/5
f 56/2/5 54/2/5 55/2/5
f 57/3/5 51/3/5 49/3/5
f 57/4/5 55/4/5 51/4/5
f 57/4/5 56/4/5 55/4/5
f 58/4/5 52/4/5 56/4/5
f 58/4/5 56/4/5 57/4/5
f 58/3/5 50/3/5 52/3/5
f 59/3/5 57/3/5 49/3/5
f 59/3/5 58/3/5 57/3/5
f 60/3/5 50/3/5 58/3/5
f 60/3/5 58/3/5 59/3/5
f 61/3/6 62/3/6 63/3/6
f 63/3/6 62/3/6 64/3/6
f 63/4/6 64/4/6 65/4/6
f 65/4/6 64/4/6 66/4/6
f 63/4/6 65/4/6 67/4/6
f 65/2/6 66/2/6 67/2/6
f 66/4/6 64/4/6 68/4/6
f 67/2/6 66/2/6 68/2/6
f 61/3/6 63/3/6 69/3/6
f 63/4/6 67/4/6 69/4/6
f 67/4/6 68/4/6 69/4/6
f 68/4/6 64/4/6 70/4/6
f 69/4/6 68/4/6 70/4/6
f 64/3/6 62/3/6 70/3/6
f 61/3/6 69/3/6 71/3/6
f 69/3/6 70/3/6 71/3/6
f 70/3/6 62/3/6 72/3/6
f 71/3/6 70/3/6 72/3/6
