# MagicaVoxel @ Ephtracy

# group
o 

# material
mtllib slideEscape_ON_03.mtl
usemtl palette

# normals
vn -1 0 0
vn 1 0 0
vn 0 0 1
vn 0 0 -1
vn 0 -1 0
vn 0 1 0

# texcoords
vt 0.0214844 0.5
vt 0.0605469 0.5
vt 0.958984 0.5
vt 0.966797 0.5
vt 0.986328 0.5
vt 0.990234 0.5

# verts
v 0 2 0
v 0 2 -2
v 0 2.2 -0.2
v 0 2.2 -1.8
v 0 2.4 -0.4
v 0 2.4 -1.6
v 0 9.6 -0.4
v 0 9.6 -1.6
v 0 9.8 -0.2
v 0 9.8 -1.8
v 0 10 0
v 0 10 -2
v 2 2 0
v 2 2 -2
v 2 2.2 -0.2
v 2 2.2 -1.8
v 2 2.4 -0.4
v 2 2.4 -1.6
v 2 9.6 -0.4
v 2 9.6 -1.6
v 2 9.8 -0.2
v 2 9.8 -1.8
v 2 10 0
v 2 10 -2
v 0 2 0
v 0 10 0
v 0.2 2.2 0
v 0.2 9.8 0
v 0.4 2.4 0
v 0.4 9.6 0
v 1.6 2.4 0
v 1.6 9.6 0
v 1.8 2.2 0
v 1.8 9.8 0
v 2 2 0
v 2 10 0
v 0 2 -2
v 0 10 -2
v 0.2 2.2 -2
v 0.2 9.8 -2
v 0.4 2.4 -2
v 0.4 9.6 -2
v 1.6 2.4 -2
v 1.6 9.6 -2
v 1.8 2.2 -2
v 1.8 9.8 -2
v 2 2 -2
v 2 10 -2
v 0 2 0
v 2 2 0
v 0.2 2 -0.2
v 1.8 2 -0.2
v 0.4 2 -0.4
v 1.6 2 -0.4
v 0.4 2 -1.6
v 1.6 2 -1.6
v 0.2 2 -1.8
v 1.8 2 -1.8
v 0 2 -2
v 2 2 -2
v 0 10 0
v 2 10 0
v 0.2 10 -0.2
v 1.8 10 -0.2
v 0.4 10 -0.4
v 1.6 10 -0.4
v 0.4 10 -1.6
v 1.6 10 -1.6
v 0.2 10 -1.8
v 1.8 10 -1.8
v 0 10 -2
v 2 10 -2

# faces
f 3/5/1 2/5/1 1/5/1
f 4/5/1 2/5/1 3/5/1
f 5/2/1 4/2/1 3/2/1
f 6/2/1 4/2/1 5/2/1
f 7/2/1 5/2/1 3/2/1
f 7/4/1 6/4/1 5/4/1
f 8/2/1 4/2/1 6/2/1
f 8/4/1 6/4/1 7/4/1
f 9/5/1 3/5/1 1/5/1
f 9/2/1 7/2/1 3/2/1
f 9/2/1 8/2/1 7/2/1
f 10/2/1 4/2/1 8/2/1
f 10/2/1 8/2/1 9/2/1
f 10/5/1 2/5/1 4/5/1
f 11/5/1 9/5/1 1/5/1
f 11/5/1 10/5/1 9/5/1
f 12/5/1 2/5/1 10/5/1
f 12/5/1 10/5/1 11/5/1
f 13/5/2 14/5/2 15/5/2
f 15/5/2 14/5/2 16/5/2
f 15/2/2 16/2/2 17/2/2
f 17/2/2 16/2/2 18/2/2
f 15/2/2 17/2/2 19/2/2
f 17/4/2 18/4/2 19/4/2
f 18/2/2 16/2/2 20/2/2
f 19/4/2 18/4/2 20/4/2
f 13/5/2 15/5/2 21/5/2
f 15/2/2 19/2/2 21/2/2
f 19/2/2 20/2/2 21/2/2
f 20/2/2 16/2/2 22/2/2
f 21/2/2 20/2/2 22/2/2
f 16/5/2 14/5/2 22/5/2
f 13/5/2 21/5/2 23/5/2
f 21/5/2 22/5/2 23/5/2
f 22/5/2 14/5/2 24/5/2
f 23/5/2 22/5/2 24/5/2
f 27/5/3 26/5/3 25/5/3
f 28/5/3 26/5/3 27/5/3
f 29/2/3 28/2/3 27/2/3
f 30/2/3 28/2/3 29/2/3
f 31/2/3 29/2/3 27/2/3
f 31/4/3 30/4/3 29/4/3
f 32/2/3 28/2/3 30/2/3
f 32/4/3 30/4/3 31/4/3
f 33/5/3 27/5/3 25/5/3
f 33/2/3 31/2/3 27/2/3
f 33/2/3 32/2/3 31/2/3
f 34/2/3 28/2/3 32/2/3
f 34/2/3 32/2/3 33/2/3
f 34/5/3 26/5/3 28/5/3
f 35/5/3 33/5/3 25/5/3
f 35/5/3 34/5/3 33/5/3
f 36/5/3 26/5/3 34/5/3
f 36/5/3 34/5/3 35/5/3
f 37/5/4 38/5/4 39/5/4
f 39/5/4 38/5/4 40/5/4
f 39/2/4 40/2/4 41/2/4
f 41/2/4 40/2/4 42/2/4
f 39/2/4 41/2/4 43/2/4
f 41/4/4 42/4/4 43/4/4
f 42/2/4 40/2/4 44/2/4
f 43/4/4 42/4/4 44/4/4
f 37/5/4 39/5/4 45/5/4
f 39/2/4 43/2/4 45/2/4
f 43/2/4 44/2/4 45/2/4
f 44/2/4 40/2/4 46/2/4
f 45/2/4 44/2/4 46/2/4
f 40/5/4 38/5/4 46/5/4
f 37/5/4 45/5/4 47/5/4
f 45/5/4 46/5/4 47/5/4
f 46/5/4 38/5/4 48/5/4
f 47/5/4 46/5/4 48/5/4
f 51/5/5 50/5/5 49/5/5
f 52/5/5 50/5/5 51/5/5
f 53/2/5 52/2/5 51/2/5
f 54/2/5 52/2/5 53/2/5
f 55/2/5 53/2/5 51/2/5
f 55/4/5 54/4/5 53/4/5
f 56/2/5 52/2/5 54/2/5
f 56/4/5 54/4/5 55/4/5
f 57/5/5 51/5/5 49/5/5
f 57/2/5 55/2/5 51/2/5
f 57/2/5 56/2/5 55/2/5
f 58/2/5 52/2/5 56/2/5
f 58/2/5 56/2/5 57/2/5
f 58/5/5 50/5/5 52/5/5
f 59/5/5 57/5/5 49/5/5
f 59/5/5 58/5/5 57/5/5
f 60/5/5 50/5/5 58/5/5
f 60/5/5 58/5/5 59/5/5
f 61/5/6 62/5/6 63/5/6
f 63/5/6 62/5/6 64/5/6
f 63/2/6 64/2/6 65/2/6
f 65/2/6 64/2/6 66/2/6
f 63/2/6 65/2/6 67/2/6
f 65/4/6 66/4/6 67/4/6
f 66/2/6 64/2/6 68/2/6
f 67/4/6 66/4/6 68/4/6
f 61/5/6 63/5/6 69/5/6
f 63/2/6 67/2/6 69/2/6
f 67/2/6 68/2/6 69/2/6
f 68/2/6 64/2/6 70/2/6
f 69/2/6 68/2/6 70/2/6
f 64/5/6 62/5/6 70/5/6
f 61/5/6 69/5/6 71/5/6
f 69/5/6 70/5/6 71/5/6
f 70/5/6 62/5/6 72/5/6
f 71/5/6 70/5/6 72/5/6
