# MagicaVoxel @ Ephtracy

# group
o 

# material
mtllib snakeDoor_02.mtl
usemtl palette

# normals
vn -1 0 0
vn 1 0 0
vn 0 0 1
vn 0 0 -1
vn 0 -1 0
vn 0 1 0

# texcoords
vt 0.400391 0.5
vt 0.435547 0.5
vt 0.990234 0.5

# verts
v 0 2 0
v 0 2 -4.1
v 0 2.1 -0.1
v 0 2.1 -4
v 0 6 -0.1
v 0 6 -4
v 0 6.1 0
v 0 6.1 -4.1
v 4.1 2 0
v 4.1 2 -4.1
v 4.1 2.1 -0.1
v 4.1 2.1 -4
v 4.1 6 -0.1
v 4.1 6 -4
v 4.1 6.1 0
v 4.1 6.1 -4.1
v 0 2 0
v 0 6.1 0
v 0.1 2.1 0
v 0.1 6 0
v 1 3 0
v 1 5.1 0
v 3.1 3 0
v 3.1 5.1 0
v 4 2.1 0
v 4 6 0
v 4.1 2 0
v 4.1 6.1 0
v 0 2 -4.1
v 0 6.1 -4.1
v 0.1 2.1 -4.1
v 0.1 6 -4.1
v 4 2.1 -4.1
v 4 6 -4.1
v 4.1 2 -4.1
v 4.1 6.1 -4.1
v 0 2 0
v 4.1 2 0
v 0.1 2 -0.1
v 4 2 -0.1
v 0.1 2 -4
v 4 2 -4
v 0 2 -4.1
v 4.1 2 -4.1
v 0 6.1 0
v 4.1 6.1 0
v 0.1 6.1 -0.1
v 4 6.1 -0.1
v 0.1 6.1 -4
v 4 6.1 -4
v 0 6.1 -4.1
v 4.1 6.1 -4.1

# faces
f 3/1/1 2/1/1 1/1/1
f 4/1/1 2/1/1 3/1/1
f 5/1/1 3/1/1 1/1/1
f 5/3/1 4/3/1 3/3/1
f 6/1/1 2/1/1 4/1/1
f 6/3/1 4/3/1 5/3/1
f 7/1/1 5/1/1 1/1/1
f 7/1/1 6/1/1 5/1/1
f 8/1/1 2/1/1 6/1/1
f 8/1/1 6/1/1 7/1/1
f 9/1/2 10/1/2 11/1/2
f 11/1/2 10/1/2 12/1/2
f 9/1/2 11/1/2 13/1/2
f 11/3/2 12/3/2 13/3/2
f 12/1/2 10/1/2 14/1/2
f 13/3/2 12/3/2 14/3/2
f 9/1/2 13/1/2 15/1/2
f 13/1/2 14/1/2 15/1/2
f 14/1/2 10/1/2 16/1/2
f 15/1/2 14/1/2 16/1/2
f 19/1/3 18/1/3 17/1/3
f 20/1/3 18/1/3 19/1/3
f 21/3/3 20/3/3 19/3/3
f 22/3/3 20/3/3 21/3/3
f 23/3/3 21/3/3 19/3/3
f 23/2/3 22/2/3 21/2/3
f 24/3/3 20/3/3 22/3/3
f 24/2/3 22/2/3 23/2/3
f 25/1/3 19/1/3 17/1/3
f 25/3/3 23/3/3 19/3/3
f 25/3/3 24/3/3 23/3/3
f 26/3/3 20/3/3 24/3/3
f 26/3/3 24/3/3 25/3/3
f 26/1/3 18/1/3 20/1/3
f 27/1/3 25/1/3 17/1/3
f 27/1/3 26/1/3 25/1/3
f 28/1/3 18/1/3 26/1/3
f 28/1/3 26/1/3 27/1/3
f 29/1/4 30/1/4 31/1/4
f 31/1/4 30/1/4 32/1/4
f 29/1/4 31/1/4 33/1/4
f 31/3/4 32/3/4 33/3/4
f 32/1/4 30/1/4 34/1/4
f 33/3/4 32/3/4 34/3/4
f 29/1/4 33/1/4 35/1/4
f 33/1/4 34/1/4 35/1/4
f 34/1/4 30/1/4 36/1/4
f 35/1/4 34/1/4 36/1/4
f 39/1/5 38/1/5 37/1/5
f 40/1/5 38/1/5 39/1/5
f 41/1/5 39/1/5 37/1/5
f 41/3/5 40/3/5 39/3/5
f 42/1/5 38/1/5 40/1/5
f 42/3/5 40/3/5 41/3/5
f 43/1/5 41/1/5 37/1/5
f 43/1/5 42/1/5 41/1/5
f 44/1/5 38/1/5 42/1/5
f 44/1/5 42/1/5 43/1/5
f 45/1/6 46/1/6 47/1/6
f 47/1/6 46/1/6 48/1/6
f 45/1/6 47/1/6 49/1/6
f 47/3/6 48/3/6 49/3/6
f 48/1/6 46/1/6 50/1/6
f 49/3/6 48/3/6 50/3/6
f 45/1/6 49/1/6 51/1/6
f 49/1/6 50/1/6 51/1/6
f 50/1/6 46/1/6 52/1/6
f 51/1/6 50/1/6 52/1/6
