# MagicaVoxel @ Ephtracy

# group
o 

# material
mtllib snakeDoor_04.mtl
usemtl palette

# normals
vn -1 0 0
vn 1 0 0
vn 0 0 1
vn 0 0 -1
vn 0 -1 0
vn 0 1 0

# texcoords
vt 0.435547 0.5
vt 0.591797 0.5
vt 0.990234 0.5

# verts
v 0 2 0
v 0 2 -4.1
v 0 2.1 -0.1
v 0 2.1 -4
v 0 6 -0.1
v 0 6 -4
v 0 6.1 0
v 0 6.1 -4.1
v 4.1 2 0
v 4.1 2 -4.1
v 4.1 2.1 -0.1
v 4.1 2.1 -4
v 4.1 6 -0.1
v 4.1 6 -4
v 4.1 6.1 0
v 4.1 6.1 -4.1
v 0 2 0
v 0 6.1 0
v 0.1 2.1 0
v 0.1 6 0
v 1 3 0
v 1 5.1 0
v 3.1 3 0
v 3.1 5.1 0
v 4 2.1 0
v 4 6 0
v 4.1 2 0
v 4.1 6.1 0
v 0 2 -4.1
v 0 6.1 -4.1
v 0.1 2.1 -4.1
v 0.1 6 -4.1
v 4 2.1 -4.1
v 4 6 -4.1
v 4.1 2 -4.1
v 4.1 6.1 -4.1
v 0 2 0
v 4.1 2 0
v 0.1 2 -0.1
v 4 2 -0.1
v 0.1 2 -4
v 4 2 -4
v 0 2 -4.1
v 4.1 2 -4.1
v 0 6.1 0
v 4.1 6.1 0
v 0.1 6.1 -0.1
v 4 6.1 -0.1
v 0.1 6.1 -4
v 4 6.1 -4
v 0 6.1 -4.1
v 4.1 6.1 -4.1

# faces
f 3/2/1 2/2/1 1/2/1
f 4/2/1 2/2/1 3/2/1
f 5/2/1 3/2/1 1/2/1
f 5/3/1 4/3/1 3/3/1
f 6/2/1 2/2/1 4/2/1
f 6/3/1 4/3/1 5/3/1
f 7/2/1 5/2/1 1/2/1
f 7/2/1 6/2/1 5/2/1
f 8/2/1 2/2/1 6/2/1
f 8/2/1 6/2/1 7/2/1
f 9/2/2 10/2/2 11/2/2
f 11/2/2 10/2/2 12/2/2
f 9/2/2 11/2/2 13/2/2
f 11/3/2 12/3/2 13/3/2
f 12/2/2 10/2/2 14/2/2
f 13/3/2 12/3/2 14/3/2
f 9/2/2 13/2/2 15/2/2
f 13/2/2 14/2/2 15/2/2
f 14/2/2 10/2/2 16/2/2
f 15/2/2 14/2/2 16/2/2
f 19/2/3 18/2/3 17/2/3
f 20/2/3 18/2/3 19/2/3
f 21/3/3 20/3/3 19/3/3
f 22/3/3 20/3/3 21/3/3
f 23/3/3 21/3/3 19/3/3
f 23/1/3 22/1/3 21/1/3
f 24/3/3 20/3/3 22/3/3
f 24/1/3 22/1/3 23/1/3
f 25/2/3 19/2/3 17/2/3
f 25/3/3 23/3/3 19/3/3
f 25/3/3 24/3/3 23/3/3
f 26/3/3 20/3/3 24/3/3
f 26/3/3 24/3/3 25/3/3
f 26/2/3 18/2/3 20/2/3
f 27/2/3 25/2/3 17/2/3
f 27/2/3 26/2/3 25/2/3
f 28/2/3 18/2/3 26/2/3
f 28/2/3 26/2/3 27/2/3
f 29/2/4 30/2/4 31/2/4
f 31/2/4 30/2/4 32/2/4
f 29/2/4 31/2/4 33/2/4
f 31/3/4 32/3/4 33/3/4
f 32/2/4 30/2/4 34/2/4
f 33/3/4 32/3/4 34/3/4
f 29/2/4 33/2/4 35/2/4
f 33/2/4 34/2/4 35/2/4
f 34/2/4 30/2/4 36/2/4
f 35/2/4 34/2/4 36/2/4
f 39/2/5 38/2/5 37/2/5
f 40/2/5 38/2/5 39/2/5
f 41/2/5 39/2/5 37/2/5
f 41/3/5 40/3/5 39/3/5
f 42/2/5 38/2/5 40/2/5
f 42/3/5 40/3/5 41/3/5
f 43/2/5 41/2/5 37/2/5
f 43/2/5 42/2/5 41/2/5
f 44/2/5 38/2/5 42/2/5
f 44/2/5 42/2/5 43/2/5
f 45/2/6 46/2/6 47/2/6
f 47/2/6 46/2/6 48/2/6
f 45/2/6 47/2/6 49/2/6
f 47/3/6 48/3/6 49/3/6
f 48/2/6 46/2/6 50/2/6
f 49/3/6 48/3/6 50/3/6
f 45/2/6 49/2/6 51/2/6
f 49/2/6 50/2/6 51/2/6
f 50/2/6 46/2/6 52/2/6
f 51/2/6 50/2/6 52/2/6
